#!OML:ASF H:\Terrain\Patient Classification 1\Walking\steve\steve.ASF
:FULLY-SPECIFIED
:DEGREES
424
root 8.58661 16.5285 20.5742 5.78637 -1.9757 3.69302
lowerback -0.443449 0.280405 -5.34985
upperback -2.19586 0.327834 -0.354774
thorax -2.04199 0.257211 2.62824
lowerneck -9.28288 0.0330814 -1.81103
upperneck 20.0348 0.167329 0.948225
head 7.69194 0.0325172 0.630449
rclavicle 1.71638e-014 5.86415e-015
rhumerus -64.2019 -22.9844 -60.2035
rradius 21.0131
rwrist 10.8237
rhand -14.8899 -35.5954
rfingers 7.12502
rthumb 11.271 -65.2726
lclavicle 1.71638e-014 5.86415e-015
lhumerus -8.67265 -8.13998 85.0462
lradius 38.2625
lwrist 23.4438
lhand -22.1715 -12.6523
lfingers 7.12502
lthumb 4.24314 17.2852
rfemur -41.9944 0.657629 20.3037
rtibia 27.3341
rfoot -14.3374 7.91731
rtoes -10.6606
lfemur 11.9292 2.53071 -28.8465
ltibia -2.8625e-014
lfoot -12.1239 -5.02405
ltoes 0.867709
425
root 8.59163 16.5124 20.7236 5.86323 -1.75162 4.3463
lowerback -0.396146 0.147056 -5.82834
upperback -2.24546 0.139039 -0.483727
thorax -2.10701 0.173048 2.76559
lowerneck -9.35849 0.0012968 -2.07757
upperneck 19.9479 0.124382 1.17787
head 7.67702 0.0139627 0.746319
rclavicle 1.04362e-014 -7.95139e-016
rhumerus -64.5245 -22.83 -60.0134
rradius 21.0429
rwrist 10.5931
rhand -15.4816 -35.7474
rfingers 7.12502
rthumb 10.7002 -65.4549
lclavicle 1.04362e-014 -7.95139e-016
lhumerus -8.27903 -8.02091 85.0039
lradius 38.7563
lwrist 23.4279
lhand -22.039 -13.217
lfingers 7.12502
lthumb 4.37114 16.7179
rfemur -42.4695 0.304925 19.7499
rtibia 26.9458
rfoot -14.3297 8.39719
rtoes -11.4333
lfemur 12.3955 2.22226 -29.5646
ltibia -6.04305e-014
lfoot -12.5455 -5.04165
ltoes -0.574248
426
root 8.59577 16.4921 20.877 5.91685 -1.7176 4.46241
lowerback -0.483487 0.0962649 -5.74973
upperback -2.18975 0.0798036 -0.503886
thorax -1.99418 0.137629 2.70193
lowerneck -9.46248 -0.00444449 -2.17573
upperneck 19.7856 0.110572 1.30347
head 7.64223 0.0126208 0.802125
rclavicle 8.02593e-015 -9.93923e-016
rhumerus -64.8675 -23.3848 -59.0836
rradius 20.7712
rwrist 11.1845
rhand -15.9062 -35.658
rfingers 7.12502
rthumb 10.2907 -65.3863
lclavicle 8.02593e-015 -9.93923e-016
lhumerus -7.95993 -8.08865 84.9393
lradius 39.3884
lwrist 23.6584
lhand -22.4398 -13.6631
lfingers 7.12502
lthumb 3.98412 16.2794
rfemur -42.8029 0.451999 19.6378
rtibia 26.5049
rfoot -13.7947 8.70418
rtoes -8.62929
lfemur 12.9171 2.14941 -29.6888
ltibia 3.18055e-014
lfoot -12.6386 -5.0736
ltoes -1.51052
427
root 8.59542 16.4728 21.0446 6.0785 -1.9551 3.98155
lowerback -0.812604 0.141842 -5.08969
upperback -2.18682 0.166899 -0.421487
thorax -1.80897 0.165687 2.41713
lowerneck -9.0834 0.40771 -1.87871
upperneck 19.7292 0.65265 1.14701
head 7.54663 0.278434 0.749329
rclavicle 1.48716e-014 2.06736e-014
rhumerus -65.2043 -23.555 -58.7742
rradius 20.9152
rwrist 11.3218
rhand -15.0886 -36.0352
rfingers 7.12502
rthumb 11.0793 -65.7228
lclavicle 1.48716e-014 2.06736e-014
lhumerus -7.6935 -8.34137 84.715
lradius 39.9174
lwrist 23.9531
lhand -22.5882 -13.6044
lfingers 7.12502
lthumb 3.84077 16.3407
rfemur -43.0077 0.987614 20.1374
rtibia 26.0486
rfoot -13.518 8.76161
rtoes -7.20856
lfemur 13.3668 2.37771 -29.1731
ltibia -2.8625e-014
lfoot -12.5491 -5.09738
ltoes -2.49254
428
root 8.58521 16.452 21.2031 6.30722 -1.90864 3.71248
lowerback -0.980136 0.087475 -4.81832
upperback -2.275 0.104014 -0.30012
thorax -1.79943 0.132133 2.3908
lowerneck -8.77559 0.239145 -1.95495
upperneck 19.2404 0.464646 0.956023
head 7.33529 0.167416 0.679047
rclavicle 9.10061e-015 8.74653e-015
rhumerus -65.4478 -23.4474 -58.6833
rradius 20.988
rwrist 11.3278
rhand -14.7596 -36.0231
rfingers 7.12502
rthumb 11.3966 -65.6934
lclavicle 9.10061e-015 8.74653e-015
lhumerus -7.46289 -8.44427 84.562
lradius 40.382
lwrist 24.1892
lhand -22.3595 -13.2463
lfingers 7.12502
lthumb 4.06162 16.6947
rfemur -43.1722 1.65136 20.1944
rtibia 25.6505
rfoot -13.827 8.21127
rtoes -8.98648
lfemur 13.7157 2.29647 -28.8455
ltibia -2.8625e-014
lfoot -12.7689 -5.02083
ltoes -3.94611
429
root 8.57043 16.4232 21.3493 6.31515 -1.44872 4.06627
lowerback -0.798089 -0.0795245 -5.21919
upperback -2.25899 -0.130158 -0.300556
thorax -1.86816 0.0234707 2.61665
lowerneck -9.35698 0.0167416 -2.12973
upperneck 19.4671 0.191416 0.998219
head 7.51803 0.0275499 0.700059
rclavicle -1.27036e-014 9.93923e-016
rhumerus -65.6808 -23.6935 -58.1933
rradius 20.696
rwrist 11.6428
rhand -15.4741 -34.4402
rfingers 7.12502
rthumb 10.7075 -64.1473
lclavicle -1.27036e-014 9.93923e-016
lhumerus -7.19587 -8.58535 84.5442
lradius 40.8622
lwrist 24.4247
lhand -22.5695 -13.1741
lfingers 7.12502
lthumb 3.85885 16.7707
rfemur -43.2531 2.10278 19.4321
rtibia 25.5912
rfoot -14.2951 7.38022
rtoes -9.42591
lfemur 14.2943 1.78147 -29.1325
ltibia -3.18055e-014
lfoot -12.9117 -5.0485
ltoes -3.82913
430
root 8.56571 16.3916 21.5048 6.19186 -0.982398 4.51431
lowerback -0.482117 -0.218405 -5.5001
upperback -2.26396 -0.338935 -0.39746
thorax -2.03378 -0.0724032 2.67717
lowerneck -9.65723 -0.111848 -2.04802
upperneck 19.6655 0.0534321 0.764146
head 7.64019 -0.0545763 0.598181
rclavicle 1.33061e-014 8.94531e-015
rhumerus -65.798 -23.4151 -58.6353
rradius 21.0889
rwrist 10.6008
rhand -15.3625 -34.1515
rfingers 7.12502
rthumb 10.8151 -63.853
lclavicle 1.33061e-014 8.94531e-015
lhumerus -7.16252 -8.93273 84.549
lradius 41.3353
lwrist 24.7934
lhand -23.2007 -13.4362
lfingers 7.12502
lthumb 3.24926 16.5187
rfemur -43.3095 2.2258 18.6819
rtibia 25.9865
rfoot -14.367 7.06168
rtoes -7.21076
lfemur 15.063 1.27872 -29.5508
ltibia 2.8625e-014
lfoot -12.7461 -5.18554
ltoes -2.57093
431
root 8.57031 16.365 21.6727 6.11315 -0.559738 4.90286
lowerback -0.176026 -0.401995 -5.62899
upperback -2.4034 -0.611025 -0.421187
thorax -2.32633 -0.195527 2.7312
lowerneck -9.46147 -0.139371 -2.07541
upperneck 19.5905 0.0802597 0.443939
head 7.58078 -0.0732435 0.499844
rclavicle 1.37721e-014 -7.15625e-015
rhumerus -66.0639 -22.8199 -58.793
rradius 21.477
rwrist 10.0615
rhand -14.7399 -35.1113
rfingers 7.12502
rthumb 11.4156 -64.7805
lclavicle 1.37721e-014 -7.15625e-015
lhumerus -7.54583 -8.84959 84.6447
lradius 41.8986
lwrist 24.9568
lhand -23.2963 -13.298
lfingers 7.12502
lthumb 3.15696 16.6584
rfemur -43.3607 2.21469 18.0241
rtibia 26.6463
rfoot -14.43 7.20031
rtoes -5.42933
lfemur 15.8051 0.826599 -29.9525
ltibia 1.59028e-014
lfoot -12.5343 -5.26409
ltoes -1.90986
432
root 8.57216 16.3412 21.8379 6.14339 -0.170848 5.3536
lowerback 0.0199607 -0.59926 -5.90237
upperback -2.50527 -0.895174 -0.420362
thorax -2.51459 -0.324328 2.8928
lowerneck -9.46824 -0.0487026 -2.1831
upperneck 19.5974 0.244431 0.34489
head 7.58247 -0.0119786 0.50061
rclavicle 1.25545e-014 -1.25234e-014
rhumerus -66.225 -22.6116 -58.4329
rradius 21.5708
rwrist 10.1514
rhand -14.2073 -36.1226
rfingers 7.12502
rthumb 11.9292 -65.7628
lclavicle 1.25545e-014 -1.25234e-014
lhumerus -7.81058 -8.67608 84.7026
lradius 42.4098
lwrist 25.0887
lhand -23.0928 -13.0336
lfingers 7.12502
lthumb 3.35348 16.9198
rfemur -43.4526 2.25503 17.2965
rtibia 27.3636
rfoot -14.805 7.32432
rtoes -6.80981
lfemur 16.4177 0.384301 -30.4228
ltibia -6.36111e-015
lfoot -12.198 -5.27247
ltoes -2.16483
